<svg width="108" height="108" viewBox="0 0 108 108" fill="none" xmlns="http://www.w3.org/2000/svg">
<path d="M107.697 51.4489H69.1168L105.836 39.6121L104.363 35.0432L64.6643 47.8413L98.4749 23.1622L95.6454 19.2838L66.4333 40.6067L87.433 11.6883L83.5488 8.86719L60.6701 40.3712L72.5075 3.27999L67.9347 1.82079L56.2502 38.4307V-9.79984e-06H51.4502V38.4377L39.7645 1.82079L35.1904 3.27999L47.0285 40.3712L24.1498 8.86719L20.265 11.6883L42.9434 42.9165L11.7683 20.1619L8.93888 24.0397L40.3699 46.9817L3.33504 35.0432L1.86176 39.6121L38.5818 51.4489H0V56.2489H38.5818L1.86176 68.0857L3.33504 72.6547L37.7043 61.5757L8.65536 82.7782L11.4854 86.656L44.6221 62.4685L20.265 96.0083L24.1498 98.8307L47.0285 67.3267L35.1904 104.418L39.7645 105.877L51.4502 69.2601V107.696H56.2502V69.2665L67.9347 105.877L72.5075 104.418L60.6701 67.3267L83.5488 98.8307L87.433 96.0083L64.7546 64.7795L95.9277 87.5341L98.7578 83.6557L67.3299 60.7161L104.363 72.6547L105.836 68.0857L69.1168 56.2489H107.697V51.4489Z" fill="#C99700"/>
</svg>
