<svg width="355" height="103" viewBox="0 0 355 103" fill="none" xmlns="http://www.w3.org/2000/svg">
<path d="M268.736 59.7471C275.628 59.7472 279.102 62.4015 279.158 67.71H274.156C273.746 65.3445 271.902 64.1621 268.624 64.1621C267.041 64.1621 265.83 64.4229 264.992 64.9443C264.173 65.4472 263.763 66.1548 263.763 67.0674C263.763 68.4644 264.945 69.3869 267.311 69.834L269.854 70.2812C269.965 70.2999 270.143 70.327 270.385 70.3643C273.216 70.8858 275.218 71.4362 276.392 72.0137C278.664 73.1499 279.809 74.9658 279.828 77.4619C279.828 79.8089 278.878 81.6162 276.979 82.8828C275.079 84.1494 272.312 84.7822 268.68 84.7822C265.066 84.7822 262.337 84.1213 260.493 82.7988C258.668 81.4763 257.765 79.4549 257.783 76.7354H262.812C262.906 77.8716 263.437 78.7563 264.405 79.3896C265.374 80.0229 266.799 80.3485 268.68 80.3672C270.468 80.3672 271.847 80.0881 272.815 79.5293C273.803 78.9705 274.296 78.2253 274.296 77.2939C274.296 76.4931 273.97 75.8689 273.318 75.4219C272.666 74.9748 271.623 74.6308 270.188 74.3887L267.283 73.8857C266.24 73.6995 265.355 73.5221 264.629 73.3545C263.902 73.1682 263.111 72.8978 262.254 72.5439C261.416 72.1714 260.735 71.7527 260.214 71.2871C259.711 70.8214 259.283 70.2061 258.929 69.4424C258.593 68.6788 258.426 67.8035 258.426 66.8164C258.426 64.5811 259.32 62.8486 261.108 61.6191C262.915 60.3712 265.458 59.7471 268.736 59.7471ZM132.832 65.1953H118.666V70.7275H132.05V74.9473H118.666V84H113.105V60.5293H132.832V65.1953ZM142.768 84H137.208V60.5293H142.768V84ZM152.725 79.334H166.248V84H147.164V60.5293H152.725V79.334ZM183.352 76.9863H183.771L189.582 60.5293H196.707V84H191.371V69.8613H190.896L185.727 84H181.396L176.227 69.8613H175.752V84H170.415V60.5293H177.54L183.352 76.9863ZM229.897 65.1953H215.73V70.7275H229.115V74.9473H215.73V84H210.171V60.5293H229.897V65.1953ZM254.027 65.084H239.833V70.2246H253.524V74.248H239.833V79.418H254.027V84H234.272V60.5293H254.027V65.084ZM305.5 65.1953H296.698V84H291.11V65.1953H282.337V60.5293H305.5V65.1953ZM125.539 21.7471C126.899 21.7471 128.175 21.9147 129.367 22.25C130.578 22.5666 131.723 23.0697 132.804 23.7588C133.884 24.4293 134.797 25.3792 135.542 26.6084C136.306 27.8378 136.828 29.2817 137.107 30.9395H131.771C130.802 28.0337 128.724 26.5811 125.539 26.5811C123.434 26.5811 121.683 27.3079 120.286 28.7607C118.889 30.195 118.191 32.0296 118.191 34.2646C118.191 36.4998 118.889 38.344 120.286 39.7969C121.683 41.2311 123.434 41.9482 125.539 41.9482C128.724 41.9482 130.802 40.486 131.771 37.5615H137.107C136.884 38.9026 136.502 40.1043 135.962 41.166C135.422 42.2278 134.778 43.1125 134.033 43.8203C133.307 44.5095 132.469 45.0783 131.519 45.5254C130.569 45.9723 129.6 46.2884 128.613 46.4746C127.645 46.6795 126.619 46.7822 125.539 46.7822C121.739 46.7821 118.647 45.6184 116.263 43.29C113.878 40.9616 112.687 37.9529 112.687 34.2646C112.687 30.5764 113.878 27.5677 116.263 25.2393C118.647 22.911 121.739 21.7472 125.539 21.7471ZM230.683 36.0811C230.683 37.9809 231.158 39.4617 232.107 40.5234C233.076 41.5666 234.501 42.0879 236.383 42.0879C238.264 42.0878 239.689 41.5664 240.657 40.5234C241.626 39.4617 242.11 37.9809 242.11 36.0811V22.5293H247.699V36.2207C247.699 39.7412 246.73 42.3867 244.793 44.1562C242.856 45.9071 240.052 46.7822 236.383 46.7822C232.713 46.7822 229.91 45.907 227.973 44.1562C226.035 42.3867 225.066 39.7412 225.066 36.2207V22.5293H230.683V36.0811ZM280.654 36.0811C280.654 37.9808 281.129 39.4617 282.079 40.5234C283.048 41.5666 284.473 42.0879 286.354 42.0879C288.236 42.0879 289.661 41.5666 290.63 40.5234C291.598 39.4617 292.082 37.9808 292.082 36.0811V22.5293H297.671V36.2207C297.671 39.7412 296.702 42.3867 294.765 44.1562C292.827 45.907 290.024 46.7822 286.354 46.7822C282.685 46.7822 279.882 45.907 277.944 44.1562C276.007 42.3867 275.038 39.7412 275.038 36.2207V22.5293H280.654V36.0811ZM342.304 21.7471C344.092 21.7471 345.75 22.0174 347.277 22.5576C348.805 23.0978 350.164 24.0107 351.356 25.2959C352.567 26.5625 353.377 28.1363 353.787 30.0176H348.228C347.762 28.9558 347.007 28.1176 345.964 27.5029C344.939 26.8883 343.747 26.5811 342.388 26.5811C340.171 26.5811 338.354 27.2981 336.938 28.7324C335.542 30.1667 334.844 32.0109 334.844 34.2646C334.844 36.4999 335.551 38.344 336.967 39.7969C338.382 41.2497 340.17 41.9765 342.331 41.9766C343.84 41.9766 345.191 41.5947 346.383 40.8311C347.575 40.0673 348.348 38.9123 348.702 37.3662H341.885V33.5938H354.15V46H350.658L350.603 42.2002C349.746 43.5786 348.571 44.6872 347.081 45.5254C345.591 46.3634 343.793 46.7822 341.688 46.7822C338.149 46.7821 335.206 45.6087 332.859 43.2617C330.512 40.9147 329.339 37.9156 329.339 34.2646C329.339 30.5764 330.531 27.5677 332.915 25.2393C335.318 22.9109 338.448 21.7471 342.304 21.7471ZM164.806 46H159.021L157.568 42.0605H146.001L144.548 46H138.792L147.873 22.5293H155.696L164.806 46ZM181.286 38.9863H181.705L187.517 22.5293H194.642V46H189.305V31.8613H188.83L183.661 46H179.33L174.161 31.8613H173.686V46H168.35V22.5293H175.475L181.286 38.9863ZM211.299 22.5293C214.428 22.5293 216.822 23.2649 218.479 24.7363C220.137 26.2078 220.966 28.3409 220.966 31.1348C220.966 33.9289 220.137 36.0626 218.479 37.5342C216.822 38.9869 214.428 39.7129 211.299 39.7129H204.593V46H199.032V22.5293H211.299ZM257.643 41.334H271.166V46H252.083V22.5293H257.643V41.334ZM319.406 38.3164H319.937V22.5293H325.386V46H319.043L308.006 30.2129H307.503V46H302.055V22.5293H308.509L319.406 38.3164ZM147.565 37.8408H156.004L152.315 27.8105H151.254L147.565 37.8408ZM204.593 35.0469H210.936C212.332 35.0469 213.422 34.721 214.204 34.0693C214.986 33.3987 215.378 32.4201 215.378 31.1348C215.378 29.8497 214.986 28.8717 214.204 28.2012C213.422 27.5308 212.332 27.1953 210.936 27.1953H204.593V35.0469ZM159.05 21.2441H154.132L152.483 19.4277H151.114L149.466 21.2441H144.548L148.376 16.6621H155.222L159.05 21.2441Z" fill="#C99700"/>
<path d="M282.337 60.5293V65.1953H291.11V84H296.698V65.1953H305.5V60.5293H282.337ZM306 65.6953H297.198V84.5H290.61V65.6953H281.837V60.0293H306V65.6953Z" fill="#C99700"/>
<path d="M263.273 76.2354L263.31 76.6943C263.386 77.6127 263.783 78.3262 264.525 78.8652L264.679 78.9717C265.531 79.5292 266.844 79.8478 268.683 79.8662C270.429 79.8659 271.706 79.5924 272.565 79.0967L272.569 79.0947C273.44 78.6018 273.796 78.0032 273.796 77.2939C273.796 76.735 273.607 76.3062 273.216 75.9717L273.036 75.834C272.475 75.4494 271.518 75.1194 270.105 74.8809H270.103L267.198 74.3779H267.195C266.409 74.2375 265.71 74.1015 265.098 73.9707L264.516 73.8418L264.505 73.8389C263.751 73.6456 262.936 73.3667 262.062 73.0059L262.051 73.001C261.288 72.662 260.635 72.2791 260.102 71.8477L259.881 71.6602L259.874 71.6533C259.384 71.1994 258.968 70.6282 258.62 69.9502L258.474 69.6533L258.471 69.6436C258.103 68.806 257.926 67.8602 257.926 66.8164C257.926 64.4224 258.896 62.533 260.825 61.207C262.747 59.8798 265.404 59.2471 268.736 59.2471C272.233 59.2471 274.953 59.9184 276.814 61.3408C278.582 62.6916 279.509 64.6671 279.642 67.1924L279.658 67.7051L279.663 68.21H273.736L273.664 67.7959C273.48 66.7364 272.988 65.9777 272.196 65.4697C271.385 64.9496 270.212 64.6621 268.624 64.6621C267.083 64.6621 265.98 64.9174 265.256 65.3682L265.254 65.3701C264.573 65.788 264.263 66.3396 264.262 67.0674L264.272 67.2627C264.32 67.7081 264.537 68.0855 264.957 68.4131C265.459 68.8042 266.257 69.1261 267.404 69.3428H267.403L269.94 69.7881H269.939L270.461 69.8701L270.468 69.8721L270.475 69.873C273.311 70.3953 275.372 70.9543 276.612 71.5645L276.615 71.5664C277.818 72.1678 278.749 72.9625 279.379 73.9609C279.93 74.8349 280.236 75.8418 280.31 76.9678L280.329 77.458V77.4619L280.316 77.9258C280.196 80.2137 279.172 82.0215 277.256 83.2988C275.238 84.6436 272.358 85.2822 268.68 85.2822C265.248 85.2822 262.527 84.696 260.581 83.4609L260.202 83.2051L260.2 83.2031C258.216 81.7657 257.264 79.5748 257.283 76.7314L257.286 76.2354H263.273ZM258.433 67.1816C258.47 68.0208 258.635 68.7743 258.929 69.4424C259.282 70.2061 259.711 70.8214 260.214 71.2871C260.735 71.7528 261.416 72.1714 262.254 72.5439C263.111 72.8978 263.902 73.1682 264.629 73.3545C265.355 73.5221 266.24 73.6995 267.283 73.8857L270.189 74.3887C271.623 74.6308 272.666 74.9749 273.318 75.4219C273.97 75.8689 274.296 76.493 274.296 77.2939C274.296 78.2253 273.802 78.9705 272.815 79.5293C271.847 80.0881 270.468 80.3671 268.68 80.3672L268.333 80.3604C266.736 80.3104 265.489 80.0256 264.592 79.5049L264.405 79.3896C263.436 78.7563 262.905 77.8716 262.812 76.7354H257.783C257.764 79.4549 258.668 81.4763 260.493 82.7988C262.222 84.0387 264.728 84.6969 268.012 84.7744L268.68 84.7822C272.086 84.7822 274.729 84.2255 276.612 83.1123L276.978 82.8828C278.76 81.6953 279.706 80.0326 279.817 77.8955L279.829 77.4619C279.81 74.9658 278.664 73.1499 276.391 72.0137C275.218 71.4362 273.216 70.8858 270.385 70.3643L269.853 70.2812L267.311 69.834C265.094 69.4149 263.915 68.5782 263.776 67.3242L263.762 67.0674C263.763 66.2119 264.123 65.5365 264.843 65.041L264.992 64.9443C265.83 64.4228 267.041 64.1621 268.624 64.1621L269.222 64.1758C272.127 64.3145 273.772 65.4925 274.156 67.71H279.158C279.104 62.5672 275.842 59.9156 269.372 59.7549L268.736 59.7471C265.458 59.7471 262.915 60.3712 261.108 61.6191L260.783 61.8555C259.211 63.067 258.426 64.7208 258.426 66.8164L258.433 67.1816Z" fill="#C99700"/>
<path d="M234.272 60.5293V84H254.027V79.418H239.833V74.248H253.524V70.2246H239.833V65.084H254.027V60.5293H234.272ZM254.527 65.584H240.333V69.7246H254.024V74.748H240.333V78.918H254.527V84.5H233.772V60.0293H254.527V65.584Z" fill="#C99700"/>
<path d="M210.171 60.5293V84H215.731V74.9473H229.115V70.7275H215.731V65.1953H229.897V60.5293H210.171ZM230.397 65.6953H216.231V70.2275H229.615V75.4473H216.231V84.5H209.671V60.0293H230.397V65.6953Z" fill="#C99700"/>
<path d="M189.583 60.5293L183.77 76.9863H183.351L177.54 60.5293H170.415V84H175.752V69.8613H176.226L181.395 84H185.726L190.895 69.8613H191.371V84H196.708V60.5293H189.583ZM197.208 84.5H190.871V71.3848L186.076 84.5H181.046L176.252 71.3867V84.5H169.915V60.0293H177.893L183.561 76.0791L189.111 60.3633L189.228 60.0293H197.208V84.5Z" fill="#C99700"/>
<path d="M147.164 60.5293V84H166.248V79.334H152.724V60.5293H147.164ZM153.224 78.834H166.748V84.5H146.664V60.0293H153.224V78.834Z" fill="#C99700"/>
<path d="M137.208 60.5293V84H142.767V60.5293H137.208ZM143.267 84.5H136.708V60.0293H143.267V84.5Z" fill="#C99700"/>
<path d="M113.105 60.5293V84H118.666V74.9473H132.05V70.7275H118.666V65.1953H132.832V60.5293H113.105ZM133.332 65.6953H119.166V70.2275H132.55V75.4473H119.166V84.5H112.605V60.0293H133.332V65.6953Z" fill="#C99700"/>
<path d="M334.844 34.2646C334.844 32.0108 335.542 30.1667 336.939 28.7324C338.355 27.2982 340.171 26.5811 342.387 26.5811L342.889 26.5957C344.043 26.6629 345.067 26.9651 345.964 27.5029C346.942 28.0792 347.666 28.852 348.136 29.8213L348.227 30.0176H353.788C353.378 28.1362 352.567 26.5626 351.356 25.2959C350.238 24.0909 348.974 23.2132 347.561 22.6631L347.277 22.5576C345.941 22.085 344.505 21.8189 342.969 21.7598L342.303 21.7471C338.448 21.7471 335.319 22.9111 332.916 25.2393C330.531 27.5677 329.339 30.5764 329.339 34.2646C329.339 37.9155 330.512 40.9147 332.859 43.2617C335.059 45.462 337.784 46.631 341.032 46.7686L341.689 46.7822C343.662 46.7822 345.366 46.4144 346.799 45.6777L347.082 45.5254C348.572 44.6872 349.745 43.5786 350.602 42.2002L350.658 46H354.151V33.5938H341.885V37.3662H348.702C348.348 38.9121 347.576 40.0673 346.384 40.8311L346.158 40.9697C345.022 41.641 343.746 41.9765 342.332 41.9766V41.4766C343.751 41.4765 345.007 41.1187 346.113 40.4102C347.023 39.8273 347.668 38.9887 348.043 37.8662H341.385V33.0938H354.651V46.5H350.166L350.158 46.0078L350.124 43.6924C349.352 44.5896 348.419 45.3466 347.327 45.9609C345.746 46.8499 343.86 47.2822 341.689 47.2822C338.027 47.2822 334.953 46.0627 332.506 43.6152C330.055 41.1646 328.839 38.0336 328.839 34.2646C328.839 30.4576 330.075 27.3148 332.566 24.8818L332.567 24.8809C335.078 22.4483 338.339 21.2471 342.303 21.2471C343.913 21.2471 345.427 21.4596 346.844 21.8887L347.444 22.0859C349.052 22.6545 350.476 23.6136 351.718 24.9502H351.719C352.919 26.2061 353.741 27.7431 354.191 29.5469L354.276 29.9111L354.408 30.5176H347.9L347.769 30.2188C347.348 29.2576 346.667 28.4975 345.71 27.9336L345.707 27.9316C344.77 27.3697 343.669 27.0811 342.387 27.0811C340.29 27.0811 338.607 27.7549 337.295 29.084C336.002 30.4125 335.344 32.1247 335.344 34.2646L335.351 34.6572C335.424 36.4675 336.006 37.9695 337.086 39.1904L337.325 39.4482C338.64 40.7978 340.296 41.4766 342.332 41.4766V41.9766L341.93 41.9678C339.949 41.8826 338.294 41.1589 336.967 39.7969C335.64 38.4349 334.934 36.7291 334.851 34.6797L334.844 34.2646Z" fill="#C99700"/>
<path d="M319.936 22.5293V38.3164H319.406L308.509 22.5293H302.054V46H307.503V30.2129H308.006L319.043 46H325.385V22.5293H319.936ZM325.885 46.5H318.782L308.003 31.0811V46.5H301.554V22.0293H308.771L308.921 22.2451L319.436 37.4795V22.0293H325.885V46.5Z" fill="#C99700"/>
<path d="M280.654 36.0811V22.5293H275.038V36.2207L275.05 36.8701C275.163 40.0682 276.128 42.4972 277.944 44.1562C279.881 45.9071 282.685 46.7822 286.354 46.7822C289.795 46.7822 292.474 46.0126 294.391 44.4736L294.764 44.1562C296.581 42.4972 297.545 40.0682 297.659 36.8701L297.671 36.2207V22.5293H292.083V36.0811L292.077 36.4326C292.02 38.1645 291.538 39.5281 290.63 40.5234C289.661 41.5666 288.236 42.0879 286.354 42.0879V41.5879C288.143 41.5879 289.417 41.0949 290.263 40.1836C291.122 39.2405 291.583 37.8952 291.583 36.0811V22.0293H298.171V36.2207L298.159 36.8877C298.042 40.1777 297.046 42.7501 295.102 44.5254L295.1 44.5264C293.04 46.3888 290.098 47.2822 286.354 47.2822C282.728 47.2822 279.854 46.444 277.804 44.6982L277.609 44.5264L277.607 44.5254C275.534 42.6318 274.538 39.8315 274.538 36.2207V22.0293H281.154V36.0811L281.16 36.416C281.213 38.0621 281.659 39.2998 282.446 40.1836C283.292 41.0947 284.565 41.5878 286.354 41.5879V42.0879C284.473 42.0878 283.048 41.5664 282.08 40.5234C281.189 39.5281 280.716 38.1646 280.66 36.4326L280.654 36.0811Z" fill="#C99700"/>
<path d="M252.083 22.5293V46H271.166V41.334H257.642V22.5293H252.083ZM258.142 40.834H271.666V46.5H251.583V22.0293H258.142V40.834Z" fill="#C99700"/>
<path d="M230.682 36.0811V22.5293H225.066V36.2207L225.078 36.8701C225.191 40.0682 226.156 42.4972 227.972 44.1562C229.789 45.7977 232.366 46.6699 235.705 46.7725L236.383 46.7822C239.823 46.7822 242.502 46.0127 244.42 44.4736L244.793 44.1562C246.609 42.4972 247.574 40.0682 247.687 36.8701L247.699 36.2207V22.5293H242.11V36.0811L242.105 36.4326C242.048 38.1644 241.566 39.5281 240.658 40.5234L240.47 40.7129C239.509 41.6297 238.146 42.0879 236.383 42.0879V41.5879C238.172 41.5879 239.445 41.0947 240.291 40.1836C241.15 39.2405 241.61 37.8954 241.61 36.0811V22.0293H248.199V36.2207L248.187 36.8877C248.07 40.1777 247.073 42.7501 245.13 44.5254L245.128 44.5264C243.067 46.3888 240.126 47.2822 236.383 47.2822C232.639 47.2822 229.697 46.3888 227.636 44.5264L227.635 44.5254V44.5244C225.562 42.6308 224.566 39.8312 224.566 36.2207V22.0293H231.182V36.0811L231.188 36.416C231.241 38.0622 231.687 39.2998 232.474 40.1836C233.321 41.0947 234.594 41.5879 236.383 41.5879V42.0879L236.035 42.082C234.325 42.0209 233.015 41.5013 232.107 40.5234C231.217 39.5281 230.744 38.1644 230.688 36.4326L230.682 36.0811Z" fill="#C99700"/>
<path d="M198.533 22.0293H211.299V22.5293H199.033V46H204.593V39.7129H211.299C214.232 39.7129 216.519 39.0747 218.16 37.7979L218.479 37.5342C220.033 36.1546 220.86 34.1934 220.957 31.6514L220.967 31.1357C220.967 28.3416 220.137 26.2079 218.479 24.7363C216.821 23.265 214.428 22.5293 211.299 22.5293V22.0293C214.3 22.0293 216.711 22.6911 218.469 24.0762L218.811 24.3633C220.603 25.9534 221.467 28.2387 221.467 31.1357L221.456 31.6709C221.354 34.3151 220.491 36.4174 218.811 37.9082L218.809 37.9102C217.028 39.4709 214.499 40.2129 211.299 40.2129H205.093V46.5H198.533V22.0293ZM214.878 31.1357C214.878 30.0308 214.567 29.2377 213.997 28.6875L213.88 28.5811C213.216 28.012 212.256 27.6953 210.935 27.6953H205.093V34.5469H210.935V35.0469H204.593V27.1953H210.935C212.332 27.1953 213.422 27.5306 214.205 28.2012C214.987 28.8718 215.378 29.8504 215.378 31.1357L215.374 31.373C215.328 32.5418 214.938 33.4407 214.205 34.0693C213.422 34.7213 212.332 35.0469 210.935 35.0469V34.5469C212.259 34.5469 213.22 34.2379 213.885 33.6846C214.526 33.1319 214.878 32.3106 214.878 31.1357Z" fill="#C99700"/>
<path d="M187.517 22.5293L181.705 38.9863H181.286L175.474 22.5293H168.349V46H173.686V31.8613H174.161L179.33 46H183.661L188.83 31.8613H189.305V46H194.642V22.5293H187.517ZM195.142 46.5H188.805V33.3848L184.01 46.5H178.98L174.186 33.3867V46.5H167.849V22.0293H175.828L181.495 38.0771L187.046 22.3633L187.163 22.0293H195.142V46.5Z" fill="#C99700"/>
<path d="M165.536 46.5H158.674L158.552 46.1729L157.22 42.5605H146.349L145.017 46.1729L144.896 46.5H138.062L147.407 22.3486L147.53 22.0293H156.039L165.536 46.5ZM138.792 46H144.549L146.001 42.0605H157.569L159.021 46H164.805L155.697 22.5293H147.873L138.792 46ZM156.004 37.8408H147.566L151.254 27.8105H152.316L156.004 37.8408ZM148.282 37.3408H155.288L151.968 28.3105H151.602L148.282 37.3408ZM160.119 21.7441H153.911L153.761 21.5801L152.261 19.9277H151.336L149.836 21.5801L149.687 21.7441H143.479L147.992 16.3408L148.142 16.1621H155.456L160.119 21.7441ZM144.549 21.2441H149.466L151.114 19.4277H152.483L154.132 21.2441H159.05L155.221 16.6621H148.376L144.549 21.2441Z" fill="#C99700"/>
<path d="M118.191 34.2646C118.191 32.1691 118.805 30.4258 120.033 29.0342L120.287 28.7607C121.684 27.3078 123.435 26.5811 125.54 26.5811L125.835 26.585C128.756 26.6701 130.704 28.0325 131.677 30.6719L131.77 30.9395H137.107C136.863 29.489 136.432 28.2026 135.817 27.0801L135.543 26.6084C134.798 25.3791 133.885 24.4293 132.804 23.7588C131.859 23.1557 130.863 22.6958 129.818 22.3779L129.367 22.25C128.324 21.9567 127.217 21.7916 126.046 21.7549L125.54 21.7471C121.74 21.7471 118.647 22.9108 116.262 25.2393C113.878 27.5677 112.686 30.5764 112.686 34.2646C112.686 37.9529 113.878 40.9616 116.262 43.29C118.498 45.4729 121.355 46.632 124.835 46.7686L125.54 46.7822C126.62 46.7822 127.645 46.6795 128.613 46.4746C129.477 46.3116 130.327 46.0492 131.162 45.6865L131.518 45.5254C132.35 45.1342 133.096 44.6498 133.756 44.0732L134.034 43.8203C134.686 43.201 135.259 42.4459 135.754 41.5557L135.962 41.166C136.502 40.1043 136.884 38.9026 137.107 37.5615H131.77C130.802 40.4859 128.725 41.9481 125.54 41.9482V41.4482C127.055 41.4482 128.263 41.1014 129.198 40.4434C130.132 39.7861 130.838 38.787 131.296 37.4043L131.409 37.0615H137.697L137.6 37.6436C137.37 39.028 136.973 40.2795 136.407 41.3926C135.845 42.497 135.17 43.4299 134.378 44.1826V44.1836C133.611 44.9112 132.727 45.5089 131.731 45.9775C130.745 46.4417 129.735 46.7714 128.705 46.9658C127.703 47.1769 126.647 47.2822 125.54 47.2822C121.751 47.2822 118.607 46.1542 116.149 43.8721L115.914 43.6475C113.422 41.2144 112.186 38.0717 112.186 34.2646C112.186 30.4576 113.422 27.3148 115.914 24.8818C118.405 22.4494 121.629 21.2471 125.54 21.2471C126.941 21.2471 128.263 21.4198 129.503 21.7686H129.502C130.759 22.0984 131.949 22.6205 133.068 23.334C134.222 24.0503 135.187 25.0594 135.967 26.3447C136.669 27.476 137.172 28.7716 137.48 30.2246L137.6 30.8564L137.698 31.4395H131.41L131.296 31.0977C130.838 29.7249 130.132 28.733 129.199 28.0801C128.264 27.4262 127.056 27.0811 125.54 27.0811C123.564 27.0811 121.945 27.7566 120.647 29.1064L120.644 29.1094C119.349 30.4391 118.691 32.1433 118.691 34.2646L118.699 34.6582C118.776 36.5993 119.431 38.1853 120.647 39.4502H120.646C121.944 40.7812 123.563 41.4482 125.54 41.4482V41.9482L125.149 41.9404C123.346 41.8621 121.814 41.2343 120.552 40.0576L120.287 39.7969C118.977 38.4348 118.281 36.7292 118.199 34.6797L118.191 34.2646Z" fill="#C99700"/>
<path d="M38.5699 82.0768L32.8291 101.572L45.6504 79.0197" fill="#C99700"/>
<path d="M27.3941 51.5402L23.4315 60.5258L30.9077 65.4645L21.2427 88.289L49.8048 63.264L31.4763 82.7136L54.624 69.089L45.6917 89.3642L38.1728 102.194L50.7797 92.3093L56.0064 72.0885L56.2635 72.8021L54.7925 96.6293L60.3029 91.073L56.736 74.1269L60.0032 83.2736L62.1227 64.512L62.1269 64.5194V64.5077L69.2427 58.7829L69.2501 58.7861L72.2037 60.08V60.0693L70.2144 52.7765L68.352 42.0746L68.3712 41.9402L71.3195 42.6432L79.9979 45.4773L89.3717 41.2064L97.904 35.7077L87.3899 29.7098L74.5803 30.8192L70.6784 27.4784L82.7861 19.76L82.448 8.9813L76.6496 3.0261L63.0944 0.49916L71.2395 7.43036L72.9099 14.1152L64.5579 20.24H64.5536L52.8576 16.8992L43.9104 17.0069L32.2475 19.1264L25.0059 13.5584L26.1227 6.87357L35.5808 2.17703L22.9664 -3.45989e-05L14.4267 9.84957H14.4224V9.85276H14.4267L21.2427 26.3306L25.8123 29.3141L14.4224 27.7781L7.51467 27.9477L0 28.128L3.85067 40.8725L9.36533 43.68L17.3493 43.7376L25.2128 37.152L27.4827 51.233" fill="#C99700"/>
</svg>
